:SAMPLES-PER-SECOND 30
:FULLY-SPECIFIED
:DEGREES
91
root  -2.04484 40.9333 0.970863 -7.59192 -87.9636 7.3573
RightUpLeg  3.22506 -1.91805 -2.05129
RightLeg  -1.15171 -21.0787 0.559291
RightFoot  -0.670417 -0.325351 3.27699
RightToes  -3.13006e-008 1.75238e-005 3.56266e-009
Spine  -3.50311 -3.51195 -6.8474
Spine1  7.95999 -5.04909 7.29607
HEad  -24.5265 0.927374 -2.25247
LeftShoulder1  2.77139 -6.21851 -22.1964
LeftArm  5.47871 -25.3096 -44.5109
LeftForeArm  -170.392 -69.3298 -156.648
LeftHand  -1.29778 -9.03108 10.6209
RightShoulder  2.55589 5.0576 23.7131
RightArm  1.14046 -41.203 41.7715
RightForeArm  115.518 76.1759 129.592
RightHand  -0.552764 7.80892 -5.21867
LeftUpLeg  1.40204 1.00147 1.74434
LeftLeg  -0.370106 10.2791 -0.889539
LeftFoot  -0.513156 0.167496 -1.68739
LeftToes  4.76866e-008 1.46233e-008 1.30548e-009
92
root  -2.07825 40.9322 0.970243 -10.6933 -89.485 10.4279
RightUpLeg  2.93033 -1.72171 -2.07682
RightLeg  -0.757647 -19.7619 0.158008
RightFoot  -0.760022 -0.334157 3.41361
RightToes  -3.13006e-008 1.75238e-005 3.56266e-009
Spine  -3.691 -3.03471 -5.38125
Spine1  7.95018 -4.25749 5.76111
HEad  -24.4228 1.02891 -2.57852
LeftShoulder1  2.71876 -5.8927 -22.6516
LeftArm  -2.63608 -18.2612 -43.0896
LeftForeArm  -169.355 -69.5082 -156.55
LeftHand  -1.35195 -9.03143 11.2263
RightShoulder  2.6067 5.15661 23.9726
RightArm  2.11615 -40.187 41.6924
RightForeArm  115.057 76.4544 128.341
RightHand  -0.503465 7.76059 -4.8016
LeftUpLeg  1.8881 0.879324 1.55361
LeftLeg  -0.797786 11.9659 -0.881426
LeftFoot  -0.497164 0.178323 -1.84336
LeftToes  4.76866e-008 1.46233e-008 1.30548e-009
93
root  -2.13203 40.9291 0.985527 -160.874 -88.6371 160.453
RightUpLeg  2.88418 -1.54746 -2.04866
RightLeg  -0.666846 -18.2076 -0.0653482
RightFoot  -0.745326 -0.323898 3.25626
RightToes  -3.13006e-008 1.75238e-005 3.56266e-009
Spine  -3.75489 -2.48852 -4.19601
Spine1  8.0864 -3.59465 4.99617
HEad  -24.6992 1.00825 -2.88288
LeftShoulder1  2.70791 -5.61738 -23.4439
LeftArm  -11.6619 -9.5562 -41.9678
LeftForeArm  -168.467 -68.8425 -157.425
LeftHand  -1.34564 -8.2995 11.7303
RightShoulder  2.52513 4.9126 23.8686
RightArm  3.44881 -38.957 41.3655
RightForeArm  115.458 76.536 128.088
RightHand  -0.487067 7.70959 -4.67364
LeftUpLeg  2.46583 0.829727 1.42352
LeftLeg  -0.995385 13.8095 -0.816535
LeftFoot  -0.65037 0.188109 -1.98254
LeftToes  4.76866e-008 1.46233e-008 1.30548e-009
94
root  -2.19059 40.9288 0.997093 -174.531 -86.6985 174.07
RightUpLeg  2.62173 -1.35106 -2.05929
RightLeg  -0.367918 -16.3907 -0.361516
RightFoot  -0.774905 -0.329171 3.34197
RightToes  -3.13006e-008 1.75238e-005 3.56266e-009
Spine  -3.82157 -2.06153 -3.05118
Spine1  8.33668 -2.9679 3.9061
HEad  -24.7978 2.11851 -2.46806
LeftShoulder1  2.61884 -5.28769 -23.5479
LeftArm  -21.74 0.2228 -42.7418
LeftForeArm  -169.11 -67.7362 -158.545
LeftHand  -1.26883 -8.03625 11.2944
RightShoulder  2.69036 5.27215 24.5638
RightArm  4.44512 -37.9104 40.1324
RightForeArm  116.082 76.4122 128.759
RightHand  -0.49313 7.64826 -4.74696
LeftUpLeg  3.05796 0.951959 1.36748
LeftLeg  -1.4456 15.6685 -1.05397
LeftFoot  -0.752698 0.18912 -1.98489
LeftToes  4.76866e-008 1.46233e-008 1.30548e-009
95
root  -2.23376 40.9286 1.03337 -176.615 -84.4789 176.25
RightUpLeg  2.11036 -1.17268 -2.08945
RightLeg  0.00541908 -14.294 -0.583916
RightFoot  -0.768305 -0.327026 3.31473
RightToes  -3.13006e-008 1.75238e-005 3.56266e-009
Spine  -3.70722 -1.64847 -2.09472
Spine1  8.4812 -2.45321 3.25312
HEad  -25.0911 2.61869 -2.2209
LeftShoulder1  2.44108 -4.62981 -23.791
LeftArm  -32.1909 10.3872 -44.3181
LeftForeArm  -171.138 -66.2293 -159.815
LeftHand  -1.25 -7.61724 11.4851
RightShoulder  2.6743 5.15107 24.8165
RightArm  5.00057 -36.5637 39.5511
RightForeArm  115.745 76.6054 127.861
RightHand  -0.447505 7.76016 -4.31178
LeftUpLeg  3.40943 0.905361 1.21333
LeftLeg  -1.71947 17.901 -1.10848
LeftFoot  -0.792789 0.1935 -2.03771
LeftToes  4.76866e-008 1.46233e-008 1.30548e-009
96
root  -2.31878 40.9257 1.05516 -178.744 -82.3764 178.341
RightUpLeg  2.15596 -0.86605 -1.89232
RightLeg  -0.347229 -12.653 -0.661458
RightFoot  -0.584903 -0.31656 3.16064
RightToes  -3.13006e-008 1.75238e-005 3.56266e-009
Spine  -3.44179 -1.2063 -1.63513
Spine1  8.55279 -2.09893 3.44887
HEad  -25.8782 2.99071 -2.21813
LeftShoulder1  2.33192 -4.10079 -24.461
LeftArm  -43.0336 20.5951 -47.3112
LeftForeArm  -173.351 -65.0742 -160.618
LeftHand  -1.28446 -6.8553 12.4672
RightShoulder  2.64124 5.05203 24.792
RightArm  5.24829 -35.792 38.987
RightForeArm  115.674 76.5872 127.915
RightHand  -0.479687 7.42893 -4.69418
LeftUpLeg  3.9226 0.97339 1.23009
LeftLeg  -1.89107 19.9479 -1.11041
LeftFoot  -1.07044 0.220642 -2.44167
LeftToes  4.76866e-008 1.46233e-008 1.30548e-009
